<?xml version="1.0" encoding="UTF-8"?>
<svg width="32" height="32" version="1.1" viewBox="0 0 32 32" xmlns="http://www.w3.org/2000/svg" xmlns:xlink="http://www.w3.org/1999/xlink"><!--Generated by IJSVG (https://github.com/iconjar/IJSVG)--><path d="M368.5,240h-96.5v-96.5c0,-8.8 -7.2,-16 -16,-16c-8.8,0 -16,7.2 -16,16v96.5h-96.5c-8.8,0 -16,7.2 -16,16c0,4.4 1.8,8.4 4.7,11.3c2.9,2.9 6.9,4.7 11.3,4.7h96.5v96.5c0,4.4 1.8,8.4 4.7,11.3c2.9,2.9 6.9,4.7 11.3,4.7c8.8,0 16,-7.2 16,-16v-96.5h96.5c8.8,0 16,-7.2 16,-16c0,-8.8 -7.2,-16 -16,-16Z" transform="scale(0.0625)" fill="#000"></path></svg>