<?xml version="1.0" encoding="UTF-8"?><svg width="64" height="64" version="1.1" viewBox="0 0 64 64" xmlns="http://www.w3.org/2000/svg" xmlns:xlink="http://www.w3.org/1999/xlink"><!--Generated by IJSVG (https://github.com/iconjar/IJSVG)--><path d="M248,8c-137,0 -248,111 -248,248c0,137 111,248 248,248c137,0 248,-111 248,-248c0,-137 -111,-248 -248,-248Zm80,168c17.7,0 32,14.3 32,32c0,17.7 -14.3,32 -32,32c-17.7,0 -32,-14.3 -32,-32c0,-17.7 14.3,-32 32,-32Zm-160,0c17.7,0 32,14.3 32,32c0,17.7 -14.3,32 -32,32c-17.7,0 -32,-14.3 -32,-32c0,-17.7 14.3,-32 32,-32Zm194.8,170.2c-28.5,34.2 -70.3,53.8 -114.8,53.8c-44.5,0 -86.3,-19.6 -114.8,-53.8c-13.6,-16.3 11,-36.7 24.6,-20.5c22.4,26.9 55.2,42.2 90.2,42.2c35,0 67.8,-15.4 90.2,-42.2c13.4,-16.2 38.1,4.2 24.6,20.5Z" transform="scale(0.125)" fill="gold"></path></svg>