<?xml version="1.0" encoding="UTF-8"?><svg width="32" height="32" version="1.1" viewBox="0 0 32 32" xmlns="http://www.w3.org/2000/svg" xmlns:xlink="http://www.w3.org/1999/xlink"><!--Generated by IJSVG (https://github.com/iconjar/IJSVG)--><g transform="scale(0.0320256)"><g transform="matrix(1,0,0,1,-157.481,-338.306)"><g transform="matrix(1,0,0,1,1.01,-79.297)"><path fill="#333" stroke="#333" stroke-width="0.066856" d="M216.2,564.8c-2.9,-1 -4.8,-2.3 -7.2,-4.9c-5,-5.4 -5.3,-7 -5.3,-31.2c0,-23.2 0.4,-25.4 5,-30.9c6.5,-7.6 21.7,-7.4 28.1,0.4c4.3,5.2 4.6,7.5 4.6,30.8c0,18.4 -0.2,21.5 -1.3,24.7c-1.7,4.9 -6.8,9.7 -11.9,11.2c-4.7,1.6 -7.1,1.5 -12,-0.1Zm8.9,-11.2c2.9,-1.1 3.2,-3.6 3.2,-24.4c0,-13.3 -0.3,-20.6 -0.8,-21.7c-1.8,-4 -8,-4 -9.8,0c-0.5,1.2 -0.8,8.4 -0.8,21.7c0,23.3 0.3,24.6 5.5,24.8c0.9,0 2.1,-0.2 2.7,-0.4Zm31.7,10.8c-1,-0.6 -2.5,-2.2 -3.2,-3.7c-1.2,-2.5 -1.4,-5.1 -1.6,-35.3l-0.2,-32.6h13.6v29.9c0,25.6 0.2,30 1.1,30.7c1.6,1.3 4.1,0.4 7.1,-2.6l2.6,-2.7v-55.4h13.6v72h-13.6v-7.2l-3.4,3c-1.9,1.7 -4.4,3.4 -5.7,4c-3,1.2 -7.9,1.2 -10.3,-0.1Zm-82.6,-19.5v-19.8l-8.8,-28.2l-8.8,-28.2l7.2,-0.2c4.2,-0.1 7.3,0.1 7.6,0.5c0.2,0.4 2.5,8.6 5.1,18.2c2.5,9.6 4.8,17.5 5,17.5c0.2,0 2.1,-6.5 4.2,-14.4c2.1,-7.9 4.3,-16.1 4.9,-18.2l1.1,-3.7h7.5c6.1,0 7.4,0.2 7.1,1c-0.2,0.5 -4.3,13.4 -9,28.5l-8.6,27.5v39.2h-14.2l-0.3,-19.7Z"></path><path fill="#D02726" d="M359.7,592.5c-34.8,-1.2 -44.3,-3.6 -50.7,-13.3c-2.6,-3.9 -5.5,-12.7 -6.4,-19.3c-3.3,-23.4 -2.5,-72.3 1.5,-89.2c3.5,-15.3 11.9,-22.7 27,-24.3c14.9,-1.5 53.8,-2.4 91.6,-2c40.8,0.4 60.1,1.3 67,3c13.6,3.4 20.2,13.4 22.5,34.2c0.4,3.9 1,17.6 1.2,30.4c0.9,51.7 -3,68.2 -17.8,75.4c-5.6,2.7 -9.3,3.4 -25.1,4.3c-17.2,1.2 -87.4,1.6 -110.8,0.8Zm17.1,-28.2c1.2,-0.6 3.6,-2.4 5.3,-4l3.1,-2.9v7.4h13.6v-71.4h-13.6v54.4l-3.1,3.1c-3.3,3.3 -4.7,3.8 -6.5,2c-1,-1 -1.1,-4.7 -1.1,-30.3v-29.2h-13.5v30.9c0,34.1 0.3,36.8 4.1,39.6c2.4,1.9 8.5,2 11.7,0.4Zm65.2,-0.2c1.2,-0.8 3,-2.9 3.9,-4.8c1.7,-3.4 1.7,-3.9 1.9,-27c0.3,-25.3 -0.2,-29.9 -3.1,-35.1c-1.7,-2.9 -5.6,-5.3 -8.6,-5.3c-2.9,0 -7.1,2 -10.3,4.8l-3.5,3.1v-30.8h-12.8v95.6h12.8v-6.6l2.9,2.6c1.6,1.5 3.9,3.1 5.2,3.6c3.3,1.6 9,1.5 11.6,-0.1Zm-17,-11.7l-2.7,-1.6v-43.7l3.2,-1.7c2.6,-1.4 3.5,-1.5 5.2,-1c3.5,1.2 3.9,4 3.7,26.2l-0.2,19.9l-2,1.7c-2.6,2.2 -3.8,2.2 -7.2,0.2Zm60.1,11.6c6.9,-3.1 10,-8.4 10.5,-17.9l0.4,-6.2h-13.8v4.2c0,5.2 -0.8,7.4 -3.2,9c-2.7,1.8 -6.1,0.6 -7.7,-2.6c-1,-1.9 -1.2,-4.3 -1.2,-10.9v-8.4h25.6v-10.5c0,-13.2 -1,-17.4 -5.5,-22.3c-3.9,-4.4 -8.1,-6.1 -14.5,-6c-5.3,0.1 -8.8,1.4 -12.5,4.7c-6,5.3 -7,10 -6.6,34.1c0.2,15.6 0.5,19.5 1.5,22.1c1.7,4.6 4.9,8.1 9.2,10.2c4.9,2.5 12.9,2.7 17.8,0.5Zm-15,-48.9c0,-8.9 2.3,-11.9 8,-10.6c2.9,0.6 4.1,3.8 4.1,10.6v5.4h-12.2v-5.4Zm-122.6,8.6v-41h15.6v-13.6h-45v13.6h15v82h14.2v-41Z"></path></g></g><path fill="#333" stroke="#333" stroke-width="0.09375" d="M758.7,122.6c-9.8,-32.8 -32.1,-60.4 -58,-82.1c-26.2,-22.3 -59,-37.6 -93.5,-40c-22.8,-1.8 -45.9,2.1 -67,10.7c-24.2,9.7 -45.9,25.3 -64.1,43.9c-8.2,8.2 -15.4,17.2 -22.8,26c-16.9,20.6 -33.7,41.1 -49.6,62.4c-2.9,4.1 -6,8.1 -8.3,12.6c5.6,5.6 11.4,11 17.3,16.3c28,25.4 56.7,50 85.4,74.6c32.8,27.9 65.7,55.6 99,83c13.2,10.7 26.1,21.9 40,31.9c8.5,-6.7 15.8,-14.7 23.4,-22.4c16.6,-17.4 32.8,-35.3 48.3,-53.7c21.6,-25.2 40.3,-53.8 49.6,-85.9c7.4,-25 8,-52.2 0.3,-77.3Zm-95,65.9c-5,16.2 -16.6,29.2 -28.3,40.9c-0.9,0.7 -1.8,2.3 -3.1,1.5c-35.2,-29.9 -70.3,-60 -106.2,-89.1c0.5,-1.9 1.9,-3.2 3,-4.7c5.2,-6.4 10.2,-13 16.6,-18.3c10.9,-9.3 25,-15.1 39.4,-15.4c16.6,-0.6 33,5.7 46.2,15.5c11.9,9.1 22.9,20 29.4,33.6c5.5,11.1 6.7,24.2 3,36Zm-331.9,24.2c1.2,-1.3 2.1,-3.7 4.3,-3.2c10.8,1.5 21.5,3.8 32.2,6c15.3,3.3 30.8,6.6 45.8,11.6c2.8,1.1 5.9,1.9 8.1,4c0.8,1.9 -0.9,3.9 -1.4,5.7c-8.5,17.8 -18.4,34.8 -28,52c-12,21.2 -24.2,42.3 -36.5,63.2c-0.7,1.4 -1.9,2.5 -2,4.1c11.1,14.3 21.2,29.4 31.2,44.6c12.4,18.7 24.5,37.7 36.3,56.8c9.2,15.1 18.8,30 26.9,45.8c-1.3,2.3 -3.9,3.1 -6,4.4c-16.6,8.7 -34,15.8 -51.5,22.3c-10.8,3.6 -21.7,7.7 -33.1,8.4c-2.7,0.6 -4,-2.1 -5.4,-3.8c-10.4,-14.5 -19.8,-29.8 -29.4,-44.8c-11.6,-18.7 -23.3,-37.4 -34.7,-56.3c-0.6,-0.9 -1.1,-2.2 -2.3,-2.6c-7.3,11.2 -15.3,21.9 -22.1,33.2c2.1,24.5 4.1,49 6.6,73.4c-1.6,1.7 -4.2,1.3 -6.3,1.9c-23.4,3.3 -46.8,5.6 -70.3,7.3c-7.2,0.2 -14.5,1.5 -21.5,0.1c-4.4,-25.6 -6.8,-51.5 -9.8,-77.3c-7.3,-68.7 -14.3,-137.5 -18.9,-206.5c-0.6,-10.3 -1.2,-20.6 -1,-30.9c0.3,-1.6 0,-3.5 0.9,-4.9c2.5,-1.7 5.5,-2.2 8.4,-2.9c12.1,-2.4 24.5,-3.4 36.9,-4.4c18.3,-1.2 36.7,-2.4 55.1,-2.2c0.3,0.2 0.9,0.6 1.2,0.9c0.9,4.1 1.2,8.3 1.6,12.5c2.8,36.3 3.6,72.6 5.3,108.9c18.3,-30.8 37,-61.3 56,-91.7c7.6,-12 15.1,-24.1 23.4,-35.6Zm480.4,18.3c17.8,-5.4 37.1,-5.2 55,-0.5c20.4,5.3 39.1,15.9 55.6,28.9c20.2,16.3 38.2,35.4 53.5,56.5c9.6,13.6 18.6,28.2 22.8,44.5v1.6c-1.4,2.8 -4.1,4.7 -6.5,6.5c-9.1,6.3 -19,11.3 -28.9,16.3c-11.2,5.3 -22.5,10.6 -34.4,14.4c-2.1,0.4 -5.3,2 -6.4,-0.7c-5.6,-9.9 -10.8,-20 -17,-29.4c-9.4,-14.5 -20.3,-28.2 -33.7,-39.2c-5.3,-4.1 -11.2,-8.3 -18.1,-9.1c-5.7,-0.7 -10.5,4.2 -11.7,9.4c-0.7,5.2 2.3,9.9 4.7,14.2c9.4,15.3 21.1,28.9 30.5,44.1c10.9,17.2 20.1,36.1 22.5,56.6c1.9,15.6 -1,31.8 -7.9,45.9c-6,12.1 -14.2,23 -24,32.2c-16.7,15.5 -39.3,24.2 -62.1,24.7c-20.9,0.6 -41.5,-5.4 -59.9,-14.9c-31,-16.4 -56.9,-41.3 -77.5,-69.4c-12.1,-16.8 -22.9,-34.7 -30.2,-54.1c-0.5,-1.6 -1.5,-3.3 -1.2,-5.1c3,-3.7 7.2,-6.2 11.1,-9c15.4,-10.4 31.6,-19.6 48.3,-27.7c5,-2.2 9.9,-4.9 15.5,-5.3c3.6,6.9 5.8,14.4 8.9,21.6c9,21.9 20.4,43.8 39,59.1c5.9,4.6 12.3,9.6 20,10.3c6.2,0.7 11.8,-4.4 13,-10.2c1,-5.4 -1.2,-10.7 -3.5,-15.5c-4.9,-9.7 -11.4,-18.5 -17.9,-27.1c-10.7,-13.7 -20.4,-28.5 -26.3,-45c-5.6,-15.4 -7.2,-32.5 -3.1,-48.5c4.5,-18.6 15.3,-34.9 27.8,-49c11.3,-12.6 25.9,-22.2 42.1,-27.1Z"></path><path fill="#333" stroke="#333" stroke-width="0.09375" d="M458.7,307.8c10,-6.2 19.9,-12.8 30.5,-18c1.8,-1.4 3.2,0.8 4.2,2.1c10.6,14.2 20.3,29 30.2,43.6c23.8,35.4 47.1,71.1 70.3,106.9c19.6,30.5 39.2,60.9 58.1,91.8c4.1,6.9 8.5,13.7 12,21c1.4,2.4 -0.9,4.7 -2.4,6.4c-6.3,6.7 -14,11.9 -21.4,17.3c-16.9,11.5 -34.3,22.4 -52.5,31.7c-2.4,0.8 -4.8,2.9 -7.3,2.1c-22.4,-31.1 -43.4,-63.2 -64.6,-95.1c-22.1,-33.4 -44,-66.9 -65.5,-100.6c-14.9,-23.5 -29.9,-46.9 -43.6,-71.1c1.5,-2.6 4.1,-4 6.2,-6c14.6,-11.6 30.2,-21.9 45.8,-32.1Z"></path></g></svg>